<?xml version="1.0" encoding="iso-8859-1"?>
<!-- Generator: Adobe Illustrator 16.0.0, SVG Export Plug-In . SVG Version: 6.00 Build 0)  -->
<!DOCTYPE svg PUBLIC "-//W3C//DTD SVG 1.1//EN" "http://www.w3.org/Graphics/SVG/1.1/DTD/svg11.dtd">
<svg version="1.1" id="Capa_1" fill="white" xmlns="http://www.w3.org/2000/svg" xmlns:xlink="http://www.w3.org/1999/xlink" x="0px" y="0px"
	 width="949.154px" height="949.154px" viewBox="0 0 949.154 949.154" style="enable-background:new 0 0 949.154 949.154;"
	 xml:space="preserve">
<g>
	<polygon points="239.44,931.327 337.14,647.627 434.84,931.327 484.84,931.327 369.84,603.627 369.84,584.327 304.54,573.327 
		304.54,593.228 282.34,593.228 282.34,624.127 297.64,624.127 191.84,931.327 	"/>
	<path d="M930.54,347.127c0,0-181.8-96-184.1-96.7c-15-8.2-32.2-12.9-50.5-12.9l0,0c-29.9,0-56.9,12.4-76.101,32.4l-104.8,100
		l-82-47.9c-16.7-9.8-38.1-4.1-47.9,12.6c-9.8,16.7-4.1,38.1,12.601,47.9l104.8,61.2c5.5,3.2,11.6,4.8,17.6,4.8
		c8.801,0,17.5-3.3,24.2-9.7l46.2-44v69.3l-12.6,34.2l12.6,20.601l0,0c4,6.6,5.3,14.3,3.5,21.8l-3.5,14.7l-8,34
		c-1.9,8.1-7.2,15-14.6,19l-20,10.6c-3.5,1.8-7.4,2.8-11.301,2.8c-1.399,0-2.8-0.1-4.199-0.399l-25.7,69.5
		c-2.9,7.8,2.899,16.199,11.3,16.199h72.6v188c0,26,21.101,47,47,47c26,0,47-21.1,47-47v-188h5.601h17.1v188c0,26,21.101,47,47,47
		c26,0,47-21.1,47-47v-188h72.601c8.399,0,14.199-8.3,11.3-16.199l-59.8-161.9l0,0c10.5,0,20.899-4.7,27.8-13.7l88.7-116
		c6.3-8.2,8.6-18.7,6.399-28.7C946.14,360.527,939.64,351.927,930.54,347.127z M802.34,466.627l-1-2.6v-106.1l59.9,31.7
		L802.34,466.627z"/>
	<path d="M819.24,198.027c-8.7-4.7-27.8-18.2-27.8-46c0-36,9-145-95.5-145s-95.5,109-95.5,145c0,27.8-19.101,41.3-27.801,46
		c-2.6,1.4-3.8,4.4-2.899,7.1c5.8,18.6,20.399,24.3,36.1,24.3c24.101,0,50.601-13.4,50.601-13.4c-12.5-7.3-18.9-21.8-22-36.4
		c13.1,21.7,35.8,36,61.5,36c25.699,0,48.399-14.3,61.5-36c-3.101,14.7-9.5,29.1-22,36.4c0,0,26.5,13.4,50.6,13.4
		c15.6,0,30.3-5.6,36.1-24.3C823.04,202.427,821.84,199.427,819.24,198.027z"/>
	<polygon points="76.54,514.327 304.54,553.027 369.84,564.027 514.14,588.527 532.94,508.827 105.54,374.127 	"/>
	<path d="M533.94,602.027c0.8,0.5,1.699,0.8,2.6,0.8c0.5,0,1.1-0.1,1.6-0.3c0.2-0.1,0.5-0.2,0.7-0.3l0.7-0.4l10.7-5.7l8.7-4.6
		c2.5-1.4,4.399-3.7,5-6.5l11.5-48.8c0.6-2.601,0.199-5.3-1.2-7.5l-4.8-7.9l-0.7-1.2l-7.3-11.899l0,0c-1-1.601-2.601-2.4-4.2-2.4
		c-0.5,0-0.9,0.101-1.4,0.2c-1.6,0.5-3,1.7-3.5,3.7l-1.3,5.3l-18.2,77.1l-1.2,4.9C531.14,598.928,532.24,601.027,533.94,602.027z"/>
	<path d="M42.64,520.327c0.8,0.2,1.6,0.3,2.4,0.3c1.4,0,2.7-0.199,4-0.699c3.8-1.4,6.8-4.601,7.7-8.801l0,0l29.6-142.899l0.3-1.6
		c0.7-3.4-0.1-6.8-2-9.4c-1.7-2.4-4.2-4.1-7.3-4.8l-24.9-5.2l-8.1-1.7c-0.8-0.2-1.6-0.3-2.4-0.3c-5.6,0-10.6,3.9-11.7,9.6l-30,144.5
		c-1.3,6.5,2.8,12.8,9.3,14.2l3.9,0.8L42.64,520.327z"/>
</g>
<g>
</g>
<g>
</g>
<g>
</g>
<g>
</g>
<g>
</g>
<g>
</g>
<g>
</g>
<g>
</g>
<g>
</g>
<g>
</g>
<g>
</g>
<g>
</g>
<g>
</g>
<g>
</g>
<g>
</g>
</svg>
